<svg viewBox="0 0 64 64" fill="none" xmlns="http://www.w3.org/2000/svg">
  <path d="M9.93687 11.7369H7.20578L7.57821 8.70675H10.456C11.7426 8.70675 12.3915 9.27103 12.2843 10.1569V10.1908C12.1488 11.2347 11.2234 11.7369 9.93687 11.7369ZM12.3238 14.9928V14.9646C12.4423 13.9996 11.7595 13.4297 10.1626 13.4297H6.997L6.6133 16.5615H9.93123C11.2855 16.5615 12.1996 16.0197 12.3238 14.9928ZM29.5228 16.8041C30.2519 16.7799 30.9456 16.484 31.4677 15.9745C31.9897 15.465 32.3024 14.7787 32.3442 14.0504V14.0166C32.5304 12.3576 31.5429 11.2855 30.2056 11.2855C29.4835 11.3277 28.8007 11.6287 28.2825 12.1334C27.7644 12.6382 27.4454 13.3127 27.3842 14.0335V14.0674C27.1529 15.6981 28.2137 16.8041 29.5228 16.8041ZM39.4766 16.8041C40.1993 16.7606 40.8821 16.4584 41.4002 15.9527C41.9182 15.4471 42.237 14.7718 42.298 14.0504V14.0166C42.5124 12.3576 41.4742 11.2855 40.1538 11.2855C39.4252 11.3082 38.7315 11.6029 38.2094 12.1115C37.6872 12.6201 37.3743 13.3058 37.3324 14.0335V14.0674C37.1349 15.7094 38.1393 16.8041 39.4992 16.8041H39.4766ZM23.9422 26.1485L23.7277 27.9203H39.6064C40.7998 27.945 41.9815 27.6814 43.0513 27.1519C44.121 26.6224 45.0473 25.8427 45.7514 24.8789L47.6981 28.4733C47.7842 28.631 47.9159 28.759 48.076 28.8406C48.2361 28.9222 48.4171 28.9534 48.5953 28.9303C48.7728 28.9068 48.9389 28.83 49.0719 28.7101C49.2049 28.5903 49.2984 28.4329 49.3402 28.2589L53.3409 10.7664L55.203 31.9549C55.2227 32.1803 55.3155 32.3931 55.4673 32.5609C55.6191 32.7287 55.8215 32.8423 56.0438 32.8845C56.2661 32.9266 56.4961 32.895 56.6988 32.7944C56.9015 32.6938 57.0658 32.5298 57.1666 32.3273L60.1742 26.1203C60.7385 26.9892 61.6131 27.9372 62.9505 27.9372H63.9831V64H0V0H63.9831V26.1485H62.9505C62.1492 26.1485 61.5341 24.9635 61.2012 24.3259C61.0878 24.0673 60.9356 23.8275 60.7498 23.6149C60.6498 23.5208 60.5299 23.4506 60.3989 23.4096C60.268 23.3686 60.1294 23.3577 59.9937 23.3779C59.8575 23.4008 59.7285 23.455 59.6169 23.5363C59.5052 23.6176 59.414 23.7237 59.3504 23.8462L56.7322 29.4326L54.7346 7.155C54.7548 6.85569 54.6553 6.56061 54.4579 6.33468C54.2606 6.10875 53.9816 5.97048 53.6823 5.95027C53.3829 5.93007 53.0879 6.02959 52.8619 6.22695C52.636 6.42431 52.4977 6.70334 52.4775 7.00265L48.1608 25.6237L46.6147 22.8023C46.5564 22.6938 46.4762 22.5985 46.379 22.5227C46.2818 22.447 46.1699 22.3923 46.0504 22.3622C45.9308 22.3319 45.806 22.3274 45.6845 22.3488C45.5629 22.3702 45.4472 22.417 45.3451 22.4863C45.1474 22.6342 44.9886 22.8278 44.8824 23.0506C44.3756 24.0086 43.6157 24.8093 42.6855 25.3655C41.7552 25.9216 40.6902 26.212 39.6064 26.2049L23.9422 26.1485ZM38.7939 18.5138C39.4018 18.508 40.0002 18.3618 40.5424 18.0868C41.0846 17.8118 41.5561 17.4153 41.9199 16.9282L41.7563 18.3333H43.7256L44.7808 9.73373H42.8002L42.6366 11.0711C42.3591 10.5944 41.9575 10.202 41.4745 9.93566C40.9916 9.66934 40.4454 9.53909 39.8942 9.55881C37.8402 9.55881 35.7073 11.167 35.3518 14.0166V14.0504C34.985 16.9282 36.7738 18.5138 38.7939 18.5138ZM24.5854 20.9402H26.5604L27.04 16.9903C27.3177 17.4685 27.72 17.8622 28.204 18.1296C28.688 18.3969 29.2355 18.5278 29.788 18.5082C31.8251 18.5082 33.975 16.8944 34.3022 14.0448V14.0109C34.6521 11.1444 32.8803 9.55317 30.8602 9.55317C30.2494 9.56081 29.6486 9.71001 29.1052 9.98906C28.5618 10.2681 28.0906 10.6694 27.7284 11.1613L27.9034 9.72809H25.9566L24.5854 20.9402ZM4.42391 18.3333H9.69988C12.2391 18.3333 14.0504 17.2442 14.2987 15.2072V15.1733C14.4906 13.6272 13.6554 12.8598 12.3745 12.4084C12.8944 12.194 13.348 11.8454 13.689 11.3983C14.03 10.9512 14.2463 10.4215 14.3156 9.86352V9.8353C14.3717 9.50018 14.3527 9.1568 14.26 8.82992C14.1673 8.50304 14.0032 8.20079 13.7796 7.94498C13.2153 7.29042 12.2278 6.93493 10.9244 6.93493H5.82331L4.42391 18.3333ZM24.0776 9.73373H22.0913L21.4932 14.5865C21.4727 15.1563 21.2319 15.696 20.8214 16.0918C20.4109 16.4876 19.8628 16.7085 19.2925 16.7082C18.1245 16.7082 17.5489 15.9577 17.7126 14.6203L18.3107 9.73373H16.364L15.6699 15.2354C15.4216 17.2386 16.3865 18.5421 18.322 18.5421C18.8869 18.5355 19.4421 18.3943 19.9416 18.1304C20.4411 17.8664 20.8705 17.4872 21.1941 17.0242L21.0305 18.3615H23.0168L24.0776 9.73373Z" fill="#0079C8"/>
</svg>
